<svg width="20" height="21" viewBox="0 0 20 21" fill="none" xmlns="http://www.w3.org/2000/svg">
<path d="M18.0023 9.52301C18.2153 9.79098 18.3332 10.1391 18.3332 10.5001C18.3332 10.8611 18.2153 11.2092 18.0023 11.4772C16.6536 13.1251 13.5836 16.3334 9.99984 16.3334C6.4161 16.3334 3.34616 13.1251 1.99744 11.4772C1.78442 11.2092 1.6665 10.8611 1.6665 10.5001C1.6665 10.1391 1.78442 9.79098 1.99744 9.52301C3.34616 7.87509 6.4161 4.66675 9.99984 4.66675C13.5836 4.66675 16.6536 7.87509 18.0023 9.52301Z" stroke="#FFD11A" stroke-width="1.5" stroke-linecap="round" stroke-linejoin="round"/>
<path d="M10.0003 13.0925C11.4191 13.0925 12.5693 11.9318 12.5693 10.5C12.5693 9.06814 11.4191 7.90741 10.0003 7.90741C8.58145 7.90741 7.43127 9.06814 7.43127 10.5C7.43127 11.9318 8.58145 13.0925 10.0003 13.0925Z" stroke="#FFD11A" stroke-width="1.5" stroke-linecap="round" stroke-linejoin="round"/>
</svg>
